<?xml version="1.0" encoding="utf-8"?>
<!-- Generator: Adobe Illustrator 18.0.0, SVG Export Plug-In . SVG Version: 6.00 Build 0)  -->
<!DOCTYPE svg PUBLIC "-//W3C//DTD SVG 1.1//EN" "http://www.w3.org/Graphics/SVG/1.1/DTD/svg11.dtd">
<svg version="1.1" id="Layer_1" xmlns="http://www.w3.org/2000/svg" xmlns:xlink="http://www.w3.org/1999/xlink" x="0px" y="0px"
	 viewBox="0 153.6 400 146.7" enable-background="new 0 153.6 400 146.7" xml:space="preserve">
<g>
	
		<polygon fill="none" stroke="#877E7F" stroke-width="0.25" stroke-linecap="round" stroke-linejoin="round" stroke-miterlimit="10" points="
		353.5,162 372.1,153.9 347.3,259 329.8,266.6 319.3,215.8 316.3,199 313.1,218.4 302.4,278.3 285.5,285.6 260.7,201.8 280.2,193.5 
		291.7,242.6 294.1,256.5 296.7,240.8 306.8,182.1 326.1,173.8 336.3,223.5 339,237.2 341.8,221.8 	"/>
</g>
<g>
	<polygon fill="#C84B49" points="202,158.4 202,175.1 155.7,195.1 155.7,215 198.1,196.8 198.1,213.2 155.7,231.5 155.7,255.9 
		204.1,235 204,252 137.7,280.5 137.8,186 	"/>
</g>
<g>
	
		<polygon fill="none" stroke="#877E7F" stroke-width="0.25" stroke-linecap="round" stroke-linejoin="round" stroke-miterlimit="10" points="
		71.3,157 71.2,251.5 52.9,259.3 17.3,207.5 17.3,274.8 0.2,282 0.3,187.4 19.6,179.2 54.2,230.1 54.3,164.3 	"/>
</g>
<g>
	<polygon fill="#A8DEDE" points="81.6,245.2 54,230.1 54.2,164.3 81.7,179.2 	"/>
</g>
<g>
	<polygon fill="#433743" points="81.7,179.2 54.2,164.3 71.2,157 98.7,171.9 	"/>
</g>
<g>
	<polygon fill="#433743" points="80.3,274.2 52.7,259.3 17.2,207.5 44.8,222.5 	"/>
</g>
<g>
	<polygon fill="#C84B49" points="98.7,171.9 98.6,266.5 80.3,274.2 44.8,222.5 44.6,289.6 27.6,297 27.7,202.4 46.9,194.1 
		81.6,245.2 81.7,179.2 	"/>
</g>
<g>
	<polygon fill="#A8DEDE" points="27.6,297 0,282 0.2,187.4 27.7,202.4 	"/>
</g>
<g>
	<polygon fill="#433743" points="27.7,202.4 0.2,187.4 19.5,179.2 46.9,194.1 	"/>
</g>
<g>
	
		<polygon fill="none" stroke="#877E7F" stroke-width="0.25" stroke-linecap="round" stroke-linejoin="round" stroke-miterlimit="10" points="
		183.1,270.8 155.7,255.9 204.1,235 231.5,249.9 	"/>
</g>
<g>
	
		<polygon fill="none" stroke="#877E7F" stroke-width="0.25" stroke-linecap="round" stroke-linejoin="round" stroke-miterlimit="10" points="
		183.2,230.1 155.7,215 198.1,196.8 225.7,211.8 	"/>
</g>
<polygon fill="none" stroke="#877E7F" stroke-width="0.5" stroke-linecap="round" stroke-linejoin="round" stroke-miterlimit="10" stroke-dasharray="0.1,2,0.1,2,0.1,2" points="
	353.6,161.8 342,221.3 339.2,236.9 366.8,252 369.4,236.2 381.2,176.6 "/>
<g>
	
		<polygon fill="none" stroke="#877E7F" stroke-width="0.25" stroke-linecap="round" stroke-linejoin="round" stroke-miterlimit="10" points="
		381.2,176.6 353.6,161.8 372.3,153.6 399.8,168.5 	"/>
</g>
<polygon fill="none" stroke="#877E7F" stroke-width="0.5" stroke-linecap="round" stroke-linejoin="round" stroke-miterlimit="10" stroke-dasharray="0.1,2,0.1,2,0.1,2" points="
	347,230.4 343.9,213.5 316.5,198.5 319.6,215.5 330,266.2 357.5,281.2 "/>
<polygon fill="none" stroke="#877E7F" stroke-width="0.5" stroke-linecap="round" stroke-linejoin="round" stroke-miterlimit="10" stroke-dasharray="0.1,2,0.1,2,0.1,2" points="
	306.9,181.6 296.9,240.3 294.4,256.2 321.8,271.1 324.4,255.4 334.5,196.8 "/>
<g>
	
		<polygon fill="none" stroke="#877E7F" stroke-width="0.25" stroke-linecap="round" stroke-linejoin="round" stroke-miterlimit="10" points="
		334.5,196.8 306.9,181.6 326.2,173.3 353.8,188.4 	"/>
</g>
<g>
	
		<polygon fill="none" stroke="#877E7F" stroke-width="0.25" stroke-linecap="round" stroke-linejoin="round" stroke-miterlimit="10" points="
		288.4,216.3 261,201.4 280.3,193.1 307.9,208 	"/>
</g>
<g>
	
		<polygon fill="none" stroke="#877E7F" stroke-width="0.25" stroke-linecap="round" stroke-linejoin="round" stroke-miterlimit="10" points="
		313.1,300.3 285.7,285.2 261,201.4 288.4,216.3 	"/>
</g>
<g>
	
		<polygon fill="none" stroke="#877E7F" stroke-width="0.25" stroke-linecap="round" stroke-linejoin="round" stroke-miterlimit="10" points="
		381.2,176.6 399.8,168.5 375,273.8 357.5,281.2 347,230.4 343.9,213.5 340.8,233.2 330.1,292.8 313.1,300.3 288.4,216.3 307.9,208 
		319.4,257.2 321.8,271.1 324.4,255.4 334.5,196.8 353.8,188.4 364,238 366.8,252 369.4,236.2 	"/>
</g>
<g>
	<polygon fill="#A8DEDE" points="165.4,200.9 137.8,186 202,158.4 229.6,173.3 	"/>
</g>
<g>
	
		<polygon fill="none" stroke="#877E7F" stroke-width="0.5" stroke-linecap="round" stroke-linejoin="round" stroke-miterlimit="10" stroke-dasharray="0.1,2,0.1,2,0.1,2" points="
		229.6,173.3 229.6,190 183.2,210 183.2,230.1 225.7,211.8 225.7,228.1 183.2,246.5 183.1,270.8 231.5,249.9 231.5,267 165.2,295.5 
		165.4,200.9 	"/>
</g>
<g>
	
		<polygon fill="none" stroke="#877E7F" stroke-width="0.25" stroke-linecap="round" stroke-linejoin="round" stroke-miterlimit="10" points="
		165.2,295.5 137.7,280.5 137.8,186 165.4,200.9 	"/>
</g>
</svg>
